<?xml version="1.0" standalone="no"?>
<!DOCTYPE svg PUBLIC "-//W3C//DTD SVG 20010904//EN"
 "http://www.w3.org/TR/2001/REC-SVG-20010904/DTD/svg10.dtd">
<svg version="1.0" xmlns="http://www.w3.org/2000/svg"
 width="551.000000pt" height="551.000000pt" viewBox="0 0 551.000000 551.000000"
 preserveAspectRatio="xMidYMid meet">
<metadata>
Created by potrace 1.14, written by Peter Selinger 2001-2017
</metadata>
<g transform="translate(0.000000,551.000000) scale(0.100000,-0.100000)"
fill="#000000" stroke="none">
<path d="M1959 5243 c-13 -16 -12 -17 4 -4 9 7 17 15 17 17 0 8 -8 3 -21 -13z"/>
<path d="M2746 5253 c-1 -1 -26 -5 -56 -7 -68 -6 -93 -11 -150 -25 -25 -7 -52
-14 -60 -16 -8 -2 -15 -4 -15 -5 0 -3 -39 -11 -55 -12 -8 0 -21 -5 -27 -11 -7
-5 -13 -7 -13 -4 0 3 -33 -5 -72 -19 -40 -13 -73 -24 -73 -23 0 1 -20 -4 -45
-11 -25 -7 -49 -13 -55 -14 -23 -5 -101 -27 -115 -33 -8 -3 -25 -7 -37 -9 -13
-1 -33 -6 -45 -10 -13 -5 -25 -8 -28 -9 -14 -2 -130 -71 -130 -77 0 -5 -4 -8
-10 -8 -12 0 -274 -167 -306 -195 -6 -5 -22 -17 -34 -25 -133 -89 -327 -274
-451 -430 -72 -90 -189 -253 -189 -263 0 -2 -22 -42 -48 -88 -42 -73 -131
-266 -136 -294 -1 -5 -4 -14 -8 -20 -18 -32 -80 -273 -98 -388 -32 -204 -30
-457 5 -657 1 -8 6 -35 10 -60 33 -210 156 -538 277 -738 21 -34 38 -64 38
-67 0 -5 114 -169 144 -207 11 -14 32 -41 46 -58 58 -77 262 -286 340 -350 22
-18 49 -41 62 -52 13 -11 39 -32 58 -47 19 -14 37 -29 40 -32 26 -30 198 -131
255 -149 39 -13 76 -27 83 -33 6 -5 12 -7 12 -4 0 4 19 -1 43 -9 23 -9 47 -17
52 -18 6 -2 17 -6 25 -9 15 -5 180 -60 190 -62 3 -1 12 -4 20 -8 94 -36 192
-50 350 -50 118 0 187 7 290 28 68 14 90 17 93 14 2 -2 10 1 18 7 8 6 32 15
54 19 46 10 44 9 67 19 9 4 23 9 32 10 8 1 19 5 22 9 4 4 18 7 31 7 13 0 23 4
23 9 0 8 56 25 73 22 4 0 7 4 7 9 0 6 7 10 16 10 21 0 216 95 284 138 30 20
64 40 75 46 39 21 200 131 230 156 362 306 598 726 687 1225 32 181 31 560 -2
709 -5 22 -11 52 -13 66 -51 277 -226 626 -414 825 -21 23 -45 50 -53 60 -14
19 -14 19 5 4 80 -65 193 -177 244 -244 17 -22 35 -45 41 -52 30 -36 108 -167
150 -251 64 -131 115 -270 153 -421 37 -144 49 -129 17 20 -23 109 -96 348
-111 364 -5 5 -9 15 -9 22 0 16 -110 242 -142 293 -39 61 -47 75 -55 90 -4 8
-11 20 -15 25 -4 6 -28 37 -53 70 -107 142 -219 259 -344 360 -39 31 -71 60
-71 63 0 3 9 -3 20 -13 11 -10 20 -15 20 -10 0 4 6 3 13 -3 6 -5 47 -29 90
-51 43 -23 105 -59 138 -81 33 -22 64 -40 69 -40 5 0 10 -3 12 -7 2 -5 26 -26
53 -47 28 -22 77 -68 111 -103 54 -57 76 -95 207 -356 184 -367 237 -497 287
-707 47 -196 48 -466 4 -730 -35 -210 -153 -623 -202 -710 -113 -200 -304
-403 -583 -622 -19 -15 -90 -71 -159 -126 -185 -146 -348 -236 -570 -317 -82
-29 -78 -28 -132 -40 -21 -4 -38 -10 -38 -14 0 -4 -8 -7 -17 -8 -29 -2 -128
-20 -128 -23 0 -2 -79 -13 -107 -14 -16 0 -28 -3 -28 -6 0 -13 -402 -18 -480
-5 -25 4 -63 8 -85 9 -22 1 -49 5 -60 9 -11 3 -36 8 -55 11 -48 8 -71 13 -115
25 -21 6 -42 8 -46 5 -4 -2 -10 0 -14 6 -3 5 -15 10 -26 10 -10 0 -27 4 -37 9
-9 6 -30 13 -47 17 -34 8 -33 8 -60 18 -11 4 -33 13 -50 18 -16 6 -54 22 -83
35 -29 12 -55 23 -58 23 -8 0 -192 92 -249 125 -122 69 -345 225 -353 246 -2
5 -8 9 -13 9 -18 0 -255 231 -339 329 -136 161 -261 353 -355 546 -60 123
-148 367 -175 483 -7 30 -16 50 -19 45 -18 -20 -36 -104 -36 -163 1 -80 21
-142 92 -290 30 -63 68 -146 84 -184 63 -150 144 -268 326 -473 15 -17 51 -56
78 -87 28 -31 67 -76 88 -99 21 -23 45 -54 54 -68 9 -15 28 -34 44 -43 16 -9
34 -23 42 -30 7 -7 27 -21 45 -30 18 -9 32 -22 32 -28 0 -6 3 -9 6 -5 6 6 76
-41 82 -55 2 -5 9 -8 15 -8 10 0 30 -14 85 -60 6 -6 12 -7 12 -3 0 4 4 3 8 -2
9 -14 132 -95 143 -95 4 0 12 -6 16 -13 4 -6 28 -23 53 -36 25 -13 52 -29 60
-36 8 -7 38 -23 65 -36 28 -13 51 -27 53 -31 2 -5 7 -8 11 -8 5 0 39 -14 77
-31 38 -17 69 -30 70 -28 0 2 7 -1 15 -7 11 -9 87 -38 134 -51 117 -32 165
-38 380 -48 44 -2 125 -7 180 -11 169 -12 427 -6 453 10 7 4 12 5 12 2 0 -3
32 3 140 29 8 2 53 16 100 30 47 15 92 28 100 29 8 2 33 11 54 20 21 10 47 18
57 19 11 1 19 5 19 9 0 4 6 8 14 8 8 0 44 13 81 30 37 16 72 30 78 30 6 0 18
6 26 13 9 8 32 20 51 28 30 11 134 66 212 111 41 25 267 177 278 188 3 3 34
29 70 57 84 66 215 204 320 336 8 11 20 25 26 31 59 62 248 388 291 500 74
194 87 254 98 436 7 128 15 212 21 222 24 38 39 483 19 568 -3 14 -7 43 -10
65 -8 61 -50 231 -80 318 -44 133 -113 280 -182 389 -12 21 -23 42 -23 47 0 5
-3 11 -7 13 -5 2 -21 23 -38 48 -31 47 -103 144 -145 195 -37 44 -280 289
-280 282 0 -4 -12 6 -27 21 -16 15 -48 43 -73 62 -25 19 -46 38 -48 42 -2 5
-8 8 -14 8 -5 0 -16 7 -24 15 -20 19 -257 174 -269 176 -14 1 -186 89 -205
104 -49 39 -267 148 -284 142 -8 -3 -19 0 -25 6 -13 13 -288 18 -313 5 -12 -6
-18 -5 -18 2 0 7 -6 8 -19 0 -14 -7 -22 -7 -26 0 -4 6 -11 7 -17 4 -6 -4 -34
-9 -62 -11 -28 -2 -64 -6 -81 -8 -86 -12 -103 -15 -135 -21 -19 -4 -41 -8 -49
-10 -8 -2 -26 -6 -40 -9 -32 -8 -289 -109 -351 -138 -25 -12 -47 -21 -50 -22
-20 -3 -120 -50 -120 -57 0 -4 -6 -8 -13 -8 -45 0 -373 -203 -475 -294 -55
-49 -170 -165 -210 -211 -152 -177 -288 -459 -351 -728 -48 -205 -56 -276 -56
-512 1 -220 9 -300 51 -485 64 -285 235 -628 403 -808 22 -23 38 -42 36 -42
-3 0 59 -59 125 -120 27 -24 75 -64 91 -75 9 -5 44 -29 80 -52 35 -24 69 -46
74 -50 20 -16 183 -93 195 -93 7 0 11 -2 8 -5 -3 -3 -27 -1 -54 6 -27 6 -60
13 -74 15 -33 6 -91 24 -112 35 -10 5 -25 9 -34 9 -9 0 -28 8 -42 19 -15 10
-33 20 -40 22 -23 8 -420 391 -486 470 -126 151 -206 292 -255 449 -96 309
-122 488 -116 795 4 196 20 328 60 490 47 189 176 443 332 653 50 68 264 291
318 332 36 27 209 137 255 161 25 13 47 27 50 31 11 13 304 157 312 152 4 -3
8 -1 8 4 0 5 19 15 43 22 23 8 47 17 52 21 12 9 193 68 220 72 11 2 30 8 41
15 12 6 24 9 26 6 3 -2 16 0 30 5 30 11 93 23 133 25 17 0 32 4 35 7 8 11 130
23 220 22 93 0 155 -7 243 -28 31 -7 57 -11 57 -8 0 3 6 1 13 -5 6 -6 29 -13
50 -17 20 -4 37 -11 37 -17 0 -5 4 -7 10 -3 7 5 102 -20 160 -42 19 -7 30 -11
56 -16 11 -3 38 -13 60 -23 21 -9 41 -18 44 -19 12 -3 125 -60 130 -65 3 -3
25 -15 50 -27 25 -13 54 -28 65 -35 35 -21 118 -74 179 -114 33 -22 70 -45 83
-52 12 -7 23 -17 23 -22 0 -5 8 -11 18 -14 9 -3 32 -19 50 -35 17 -17 40 -36
51 -43 52 -37 194 -163 296 -263 82 -82 174 -200 231 -300 127 -222 196 -387
249 -595 136 -539 71 -1103 -190 -1635 -72 -147 -92 -181 -184 -319 -25 -38
-50 -76 -56 -85 -5 -9 -12 -18 -15 -21 -3 -3 -21 -25 -40 -50 -62 -80 -169
-197 -254 -279 -32 -31 -74 -71 -92 -88 -19 -18 -37 -33 -40 -33 -5 0 -13 -6
-57 -45 -15 -14 -33 -25 -39 -25 -6 0 -9 -2 -6 -5 3 -3 18 0 34 6 35 15 32 14
109 33 71 17 213 89 288 145 96 72 179 171 232 276 17 33 32 62 35 65 3 3 18
30 34 60 16 30 53 96 83 147 29 50 53 96 53 101 0 6 4 12 9 14 16 6 160 314
195 418 68 202 75 260 71 575 -1 154 -8 307 -13 340 -6 33 -13 78 -17 100 -18
122 -28 173 -60 300 -57 221 -130 415 -228 605 -61 117 -193 318 -279 425 -73
90 -237 257 -277 283 -14 9 -30 22 -34 29 -4 7 -14 13 -22 13 -7 0 -21 8 -30
17 -35 34 -161 103 -326 176 -39 18 -266 94 -302 101 -12 3 -47 12 -77 21 -30
8 -68 17 -84 20 -16 3 -32 8 -35 10 -5 3 -155 39 -293 71 -10 2 -28 7 -40 10
-27 7 -60 13 -108 21 -53 8 -330 9 -330 1 0 -4 -10 -5 -21 -3 -12 3 -27 1 -33
-2 -6 -4 -17 -8 -26 -9 -17 -1 -90 -14 -105 -18 -5 -2 -23 -6 -40 -11 -65 -17
-235 -75 -330 -112 -103 -41 -138 -54 -142 -54 -3 0 -145 -64 -203 -92 -95
-46 -219 -123 -325 -203 -309 -231 -535 -539 -663 -899 -98 -278 -133 -455
-135 -670 -3 -229 15 -342 84 -550 71 -212 194 -444 406 -770 115 -176 212
-282 358 -390 44 -33 82 -63 83 -68 2 -4 8 -5 13 -1 5 3 9 0 9 -5 0 -6 6 -11
14 -11 8 0 16 -3 18 -7 2 -5 17 -15 33 -24 17 -8 48 -25 70 -36 79 -42 220
-98 295 -118 40 -11 97 -26 111 -29 34 -9 154 -27 189 -30 14 -1 30 -4 35 -7
23 -12 463 3 485 16 3 2 26 6 50 10 25 3 62 11 83 16 21 6 51 12 67 14 15 2
39 9 52 16 12 7 24 11 26 10 1 -2 35 7 75 20 39 12 74 23 77 24 3 1 22 9 44
18 21 9 41 17 43 17 3 0 34 14 70 30 35 16 67 30 70 30 3 0 18 9 34 21 16 11
29 18 29 14 0 -3 17 6 37 20 21 14 41 25 45 25 13 0 245 159 284 195 6 5 32
28 58 49 73 60 203 193 263 268 29 37 56 68 58 68 2 0 -7 -22 -21 -49 -25 -51
-84 -132 -135 -186 -16 -16 -41 -44 -56 -61 -16 -17 -44 -49 -63 -70 -20 -22
-53 -64 -75 -94 -22 -30 -44 -61 -50 -69 -27 -37 -186 -190 -213 -207 -18 -10
-32 -22 -32 -27 0 -4 -4 -5 -10 -2 -5 3 -10 2 -10 -3 0 -4 -17 -16 -37 -26
-21 -10 -49 -25 -63 -34 -14 -9 -27 -17 -30 -17 -3 -1 -16 -6 -30 -12 -50 -22
-131 -51 -145 -53 -3 0 -23 -7 -46 -15 -23 -9 -51 -17 -63 -20 -12 -2 -32 -7
-46 -10 -34 -9 -58 -13 -105 -20 -22 -3 -56 -8 -75 -11 -19 -4 -55 -8 -80 -9
-25 -2 -45 -4 -45 -5 0 -4 -367 -20 -465 -20 -79 0 -206 7 -240 14 -13 3 -42
8 -65 11 -39 6 -186 41 -215 52 -8 3 -20 7 -25 8 -48 11 -297 124 -303 138 -2
4 -8 7 -14 7 -17 0 -200 124 -274 185 -93 78 -284 273 -284 290 0 3 -18 29
-39 58 -22 29 -54 79 -72 112 -18 33 -36 63 -42 66 -5 3 -8 8 -7 10 0 2 -20
49 -46 104 -66 141 -125 299 -188 498 -84 265 -88 287 -91 437 -2 121 2 176
20 300 19 128 103 405 178 590 100 247 251 507 413 710 69 86 282 305 342 350
18 14 43 34 55 45 13 11 50 38 82 60 33 22 62 42 65 45 3 3 15 11 28 18 12 6
32 18 45 25 12 6 24 15 27 18 3 3 20 11 38 18 17 8 32 18 32 24 0 6 3 8 6 4 3
-3 31 7 63 23 48 24 92 42 111 45 3 0 14 6 25 11 18 10 56 22 77 24 4 0 26 7
49 15 44 16 76 24 122 31 16 2 34 7 40 11 13 8 11 7 142 20 103 9 425 10 500
0 28 -3 71 -8 96 -11 61 -7 98 -13 204 -37 50 -11 99 -22 110 -24 48 -11 214
-63 229 -73 6 -3 18 -8 27 -9 9 -1 47 -17 85 -34 38 -18 78 -34 88 -36 11 -2
25 -8 31 -13 7 -6 50 -29 96 -51 46 -23 86 -44 89 -48 3 -4 19 -13 36 -20 18
-7 40 -20 51 -29 18 -16 30 -24 86 -54 12 -7 24 -15 27 -18 3 -3 41 -32 85
-64 119 -88 188 -149 310 -271 148 -149 272 -299 328 -397 11 -21 25 -38 30
-38 18 0 -135 235 -228 350 -87 108 -296 317 -400 401 -93 75 -199 149 -213
149 -6 0 -12 4 -14 9 -3 8 -153 89 -153 82 0 -1 -22 8 -50 22 -27 14 -68 30
-90 37 -22 6 -47 14 -55 17 -8 3 -22 7 -30 9 -8 1 -28 6 -45 10 -16 4 -42 8
-57 8 -16 1 -28 5 -28 10 0 4 -7 6 -15 2 -8 -3 -15 -2 -15 3 0 4 -19 14 -42
21 -24 7 -61 20 -83 30 -35 16 -111 43 -125 45 -3 0 -9 3 -15 7 -8 5 -91 31
-123 39 -4 1 -11 3 -17 4 -11 4 -56 14 -67 15 -4 1 -22 6 -40 12 -18 5 -54 11
-80 13 -25 1 -50 5 -55 7 -4 3 -30 6 -58 7 -112 5 -147 6 -149 4z"/>
<path d="M1925 5230 c-3 -5 -1 -10 4 -10 6 0 11 5 11 10 0 6 -2 10 -4 10 -3 0
-8 -4 -11 -10z"/>
<path d="M1890 5209 c0 -5 5 -7 10 -4 6 3 10 8 10 11 0 2 -4 4 -10 4 -5 0 -10
-5 -10 -11z"/>
<path d="M1840 5190 c-9 -6 -10 -10 -3 -10 6 0 15 5 18 10 8 12 4 12 -15 0z"/>
<path d="M1655 5092 c-16 -9 -33 -21 -37 -27 -4 -5 -8 -6 -8 -1 0 5 -9 1 -20
-9 -11 -10 -20 -14 -20 -10 0 4 -8 1 -17 -7 -10 -8 -26 -18 -35 -21 -9 -3 -58
-31 -108 -61 -50 -31 -95 -56 -101 -56 -5 0 -9 -4 -9 -8 0 -5 -10 -13 -22 -19
-24 -11 -204 -144 -248 -182 -61 -54 -97 -91 -125 -126 -16 -20 -35 -42 -40
-49 -39 -44 -185 -253 -252 -361 -43 -70 -114 -205 -155 -297 -72 -160 -113
-318 -133 -508 -4 -36 -9 -68 -10 -71 -5 -7 -18 -297 -18 -379 0 -73 13 -302
17 -328 2 -9 7 -44 10 -77 24 -213 86 -425 188 -644 30 -64 116 -221 127 -231
4 -3 12 -17 20 -32 38 -73 189 -257 316 -383 77 -77 147 -144 156 -150 9 -5
48 -36 87 -68 39 -31 74 -57 77 -57 3 0 18 -11 33 -25 15 -14 30 -25 35 -25 4
0 30 -16 57 -35 28 -19 50 -32 50 -28 0 5 4 4 8 -2 4 -5 18 -16 31 -23 13 -8
39 -22 58 -33 36 -20 53 -24 53 -11 0 4 -15 13 -32 21 -18 8 -62 32 -97 53
-34 21 -65 38 -67 38 -3 0 -10 5 -17 11 -11 9 -28 21 -92 61 -11 7 -28 22 -37
32 -10 10 -18 16 -18 13 0 -4 -10 2 -23 12 -12 11 -53 45 -91 78 -116 97 -376
365 -376 388 0 3 -6 12 -12 20 -41 42 -56 68 -143 240 -145 285 -218 546 -250
885 -7 72 -7 311 -1 350 3 14 7 57 11 95 10 103 32 225 65 355 141 561 479
1092 935 1470 50 41 92 78 93 83 2 4 10 7 17 7 7 0 15 4 17 8 2 5 35 30 73 55
108 73 153 111 80 69z"/>
<path d="M5031 3870 c18 -32 35 -58 37 -56 4 5 -58 116 -65 116 -2 0 10 -27
28 -60z"/>
<path d="M5096 3757 c3 -10 9 -15 12 -12 3 3 0 11 -7 18 -10 9 -11 8 -5 -6z"/>
<path d="M5147 3655 c9 -19 18 -33 21 -31 4 5 -26 66 -33 66 -3 0 3 -16 12
-35z"/>
<path d="M5170 3605 c0 -3 4 -13 10 -23 12 -21 66 -160 87 -222 8 -25 32 -112
54 -195 31 -122 46 -143 24 -35 -3 14 -8 41 -11 60 -9 61 -26 122 -50 185 -4
11 -8 22 -9 25 -13 38 -95 210 -100 210 -3 0 -5 -2 -5 -5z"/>
<path d="M5371 2650 c-2 -118 -4 -260 -6 -315 -2 -81 -1 -91 7 -55 11 56 18
491 8 545 -4 23 -8 -49 -9 -175z"/>
<path d="M4707 2799 c4 -13 8 -18 11 -10 2 7 -1 18 -6 23 -8 8 -9 4 -5 -13z"/>
<path d="M4722 2430 c0 -14 2 -19 5 -12 2 6 2 18 0 25 -3 6 -5 1 -5 -13z"/>
<path d="M4674 2133 c-4 -21 -8 -40 -9 -43 -4 -17 -38 -118 -45 -135 -5 -11
-21 -49 -36 -85 -71 -175 -227 -466 -288 -537 -62 -73 -174 -183 -246 -244
-36 -30 -67 -56 -70 -59 -3 -3 -21 -17 -40 -30 -19 -14 -44 -32 -54 -42 -11
-10 -23 -18 -27 -18 -4 0 -14 -6 -21 -13 -7 -7 -40 -30 -73 -52 -33 -21 -63
-43 -66 -48 -3 -5 -9 -7 -12 -5 -4 1 -15 -4 -25 -13 -10 -8 -26 -18 -35 -22
-9 -3 -17 -12 -17 -19 0 -9 3 -9 8 -2 8 12 43 28 55 26 4 -1 7 2 7 8 0 5 9 10
19 10 11 0 21 4 23 9 2 5 28 21 58 36 170 85 409 282 545 449 115 141 242 377
290 536 48 157 85 330 72 330 -3 0 -8 -17 -13 -37z"/>
<path d="M1627 743 c-10 -10 -8 -23 3 -23 6 0 43 -15 83 -34 62 -30 119 -55
137 -61 12 -4 67 -26 85 -35 18 -7 81 -29 110 -37 74 -19 102 -24 172 -28 60
-3 82 -1 86 8 3 8 -4 14 -17 15 -11 1 -30 3 -41 5 -11 2 -45 8 -75 12 -58 9
-69 11 -72 15 -4 2 -39 11 -58 14 -9 1 -21 5 -28 10 -6 4 -16 5 -21 1 -5 -3
-12 -1 -15 4 -5 7 -42 19 -81 26 -5 1 -32 12 -58 23 -27 12 -51 22 -53 22 -3
0 -24 8 -47 19 -50 22 -75 31 -83 30 -4 0 -10 4 -14 10 -3 6 -9 8 -13 4z"/>
<path d="M3498 713 c7 -3 16 -2 19 1 4 3 -2 6 -13 5 -11 0 -14 -3 -6 -6z"/>
<path d="M3435 691 c-22 -10 -43 -19 -47 -20 -11 -2 -41 -12 -58 -18 -8 -4
-19 -7 -25 -9 -5 -1 -46 -13 -91 -27 -44 -13 -88 -23 -97 -21 -9 1 -17 -1 -17
-4 0 -4 -15 -8 -32 -8 -18 -1 -49 -5 -68 -8 -19 -4 -53 -9 -75 -12 -22 -3 -49
-7 -60 -9 -11 -2 -31 -4 -44 -4 -13 -1 -21 -4 -17 -8 12 -12 195 -4 291 13 96
17 118 21 123 24 1 2 7 4 12 5 6 1 13 4 18 5 4 2 12 4 17 5 13 3 41 13 95 38
25 11 48 19 53 19 4 -1 7 3 7 8 0 6 7 10 15 10 8 0 15 5 15 10 0 6 7 10 15 10
8 0 15 5 15 10 0 13 3 13 -45 -9z"/>
</g>
</svg>
